<?xml version="1.0" standalone="no"?>
<!DOCTYPE svg PUBLIC "-//W3C//DTD SVG 20010904//EN"
 "http://www.w3.org/TR/2001/REC-SVG-20010904/DTD/svg10.dtd">
<svg version="1.0" xmlns="http://www.w3.org/2000/svg"
 width="340.000000pt" height="340.000000pt" viewBox="0 0 340.000000 340.000000"
 preserveAspectRatio="xMidYMid meet">
<metadata>
Created by potrace 1.14, written by Peter Selinger 2001-2017
</metadata>
<g transform="translate(0.000000,340.000000) scale(0.100000,-0.100000)"
fill="#000000" stroke="none">
<path d="M1660 3339 c-86 -9 -134 -27 -314 -114 -94 -46 -175 -93 -214 -125
-84 -69 -177 -187 -237 -302 -29 -55 -64 -106 -86 -126 -21 -18 -50 -58 -66
-90 -28 -56 -28 -59 -28 -242 0 -173 2 -188 22 -228 14 -25 23 -60 23 -85 0
-37 5 -47 31 -66 35 -26 31 -36 -14 -36 -56 0 -79 -78 -57 -195 22 -123 33
-167 46 -193 l15 -28 437 3 437 3 27 28 c36 36 80 36 116 0 l27 -28 437 -3
437 -3 16 37 c26 62 57 235 53 291 -6 65 -30 96 -71 90 -40 -5 -43 8 -7 34 25
19 30 30 30 65 0 26 9 58 23 81 21 36 22 49 22 228 0 181 -1 192 -25 240 -13
28 -45 70 -70 95 -28 28 -60 75 -83 124 -49 103 -108 185 -194 267 -89 86
-168 137 -301 193 -182 77 -296 99 -432 85z m294 -1032 l70 -12 -133 -34
c-101 -25 -145 -32 -180 -27 -60 8 -262 64 -236 66 11 0 58 7 105 15 94 16
259 12 374 -8z m-743 -318 c-102 -110 -42 -279 99 -279 117 0 183 117 134 236
l-16 39 36 -34 c38 -37 62 -81 72 -130 15 -73 -89 -213 -181 -244 -96 -33
-235 -13 -305 44 l-25 20 32 -6 c28 -6 32 -4 37 22 12 60 10 120 -6 141 -8 12
-18 19 -21 15 -4 -3 -1 15 7 41 18 60 57 111 104 136 48 25 57 25 33 -1z
m1119 -18 c39 -31 80 -95 80 -127 0 -12 -10 -34 -22 -50 -13 -15 -18 -25 -13
-22 6 4 10 -20 10 -62 0 -38 3 -72 7 -76 5 -4 20 -2 34 5 20 9 25 9 22 -1 -3
-7 -33 -28 -69 -46 -60 -31 -69 -33 -149 -29 -137 6 -218 60 -270 182 -23 53
-20 85 10 145 21 41 79 99 65 65 -4 -11 -10 -47 -12 -80 -3 -48 0 -67 16 -93
61 -96 202 -96 261 0 36 59 22 150 -32 208 l-21 22 24 -7 c13 -4 40 -19 59
-34z m-1050 -36 c10 -12 10 -18 0 -30 -7 -8 -18 -15 -25 -15 -7 0 -18 7 -25
15 -10 12 -10 18 0 30 7 8 18 15 25 15 7 0 18 -7 25 -15z m855 5 c11 -18 -6
-50 -26 -50 -22 0 -34 22 -25 45 6 17 42 20 51 5z m-323 -183 c11 -43 17 -81
14 -84 -8 -9 -143 -9 -152 -1 -4 5 1 44 11 88 l18 81 45 -3 45 -3 19 -78z
m-792 -98 c0 -6 -4 -7 -10 -4 -5 3 -10 11 -10 16 0 6 5 7 10 4 6 -3 10 -11 10
-16z"/>
<path d="M530 1428 c0 -7 7 -148 15 -313 8 -165 18 -368 22 -451 l6 -151 -46
-65 c-63 -87 -103 -176 -131 -289 l-24 -94 156 -6 c206 -8 2216 -8 2399 0
l141 6 -23 92 c-22 87 -80 217 -128 288 -21 31 -22 38 -15 196 6 150 19 406
34 682 4 73 3 107 -4 107 -14 0 -18 -28 -33 -215 -6 -82 -13 -159 -15 -170 -2
-11 -5 -41 -8 -66 -9 -94 -18 -145 -28 -166 -13 -26 -28 -30 -28 -8 0 8 -4 15
-10 15 -5 0 -10 -7 -10 -15 0 -8 -4 -15 -10 -15 -10 0 -13 11 -11 40 0 11 -1
11 -5 2 -5 -10 -9 -10 -21 0 -14 11 -15 10 -9 -12 l7 -25 -13 23 c-10 16 -17
19 -25 11 -7 -7 -12 -6 -16 5 -4 11 -1 16 11 17 11 0 12 2 4 6 -7 3 -19 0 -27
-7 -8 -6 -19 -9 -24 -6 -5 4 -17 -4 -26 -16 l-17 -23 7 24 c5 16 4 21 -4 17
-7 -5 -11 1 -11 14 0 12 -5 18 -10 15 -6 -4 -8 -11 -5 -16 4 -5 1 -10 -4 -10
-29 -5 -36 -3 -37 9 -1 6 -2 16 -3 21 0 5 -8 12 -17 15 -12 4 -14 1 -9 -14 5
-15 3 -18 -9 -14 -9 3 -14 10 -11 14 3 4 -4 10 -16 13 -17 5 -18 3 -8 -9 6 -8
9 -17 5 -21 -3 -3 -6 -1 -6 5 0 6 -7 9 -17 5 -9 -4 -14 -2 -11 3 17 27 -75 42
-92 14 -9 -13 -10 -13 -10 0 0 20 -56 44 -78 34 -9 -4 -21 -6 -27 -5 -5 2 -18
3 -27 4 -10 1 -18 5 -18 10 0 5 9 7 20 4 12 -3 20 0 20 8 0 7 -10 11 -25 9
-14 -1 -39 1 -56 6 -18 5 -27 5 -24 -1 4 -5 1 -9 -4 -9 -6 0 -11 5 -11 11 0 7
-11 8 -30 4 -25 -5 -30 -3 -31 12 0 16 -1 16 -9 -2 -8 -19 -11 -18 -14 4 -3
22 -16 22 -16 0 0 -24 0 -24 -19 4 -12 19 -20 24 -23 15 -3 -7 -16 -13 -29
-13 -18 0 -23 -5 -21 -20 3 -14 -4 -10 -22 14 -14 19 -26 29 -26 21 0 -9 -5
-7 -15 6 -12 18 -22 21 -65 18 -35 -3 -50 0 -50 8 0 8 -7 5 -15 -6 -14 -19
-21 -12 -16 17 2 16 -10 6 -19 -15 l-9 -23 0 22 c-1 16 -6 21 -16 17 -10 -4
-15 0 -16 12 0 11 -3 14 -6 7 -3 -9 -10 -10 -23 -3 -15 8 -17 6 -13 -10 3 -12
0 -20 -6 -20 -7 0 -9 5 -5 12 5 7 1 9 -13 6 -17 -4 -19 -1 -15 21 5 24 4 25
-13 11 -17 -14 -18 -13 -12 5 6 17 5 18 -5 5 -7 -8 -21 -16 -31 -18 -15 -3
-17 0 -8 15 7 15 6 19 -9 19 -10 0 -16 -6 -13 -12 3 -9 -8 -11 -39 -9 -24 2
-51 4 -62 4 -13 1 -16 6 -12 18 4 10 4 14 0 10 -4 -4 -14 -1 -22 6 -13 10 -15
9 -10 -4 4 -9 1 -16 -8 -16 -7 0 -10 5 -7 10 4 6 0 8 -10 4 -11 -4 -14 -2 -11
7 3 8 -4 16 -15 19 -12 3 -19 2 -16 -3 3 -4 -2 -10 -10 -14 -8 -3 -15 -2 -15
3 0 4 -12 7 -27 5 -16 -2 -22 -1 -15 2 21 10 3 23 -26 18 -18 -3 -22 -1 -14 4
11 8 11 10 -2 15 -9 4 -16 1 -16 -6 0 -8 -4 -7 -9 3 -6 8 -7 18 -5 22 3 4 1 8
-5 8 -5 0 -13 -10 -16 -21 -5 -16 -9 -18 -15 -8 -7 10 -12 10 -26 -2 -11 -8
-15 -9 -10 -2 5 10 -1 11 -24 6 -24 -4 -31 -2 -28 8 1 8 0 14 -3 14 -3 0 -14
7 -24 15 -11 9 -16 10 -11 3 4 -7 2 -14 -3 -14 -6 -1 -17 -2 -23 -3 -7 -1 -19
2 -25 7 -7 5 -20 6 -29 3 -14 -5 -15 -4 -4 9 7 8 17 12 23 8 6 -3 7 -1 3 6 -5
8 -12 9 -20 2 -14 -12 -58 -3 -50 10 3 5 0 9 -5 9 -6 0 -11 -7 -11 -15 0 -13
12 -19 32 -16 4 0 5 -6 1 -14 -4 -11 -9 -13 -18 -5 -6 5 -16 6 -20 2 -5 -4 -6
-2 -2 3 8 15 -15 41 -43 49 -21 6 -22 5 -7 -4 9 -6 15 -16 11 -21 -3 -6 -13
-1 -24 11 -13 15 -24 19 -49 14 -21 -4 -31 -3 -31 5 0 7 -4 10 -9 6 -5 -3 -16
1 -24 9 -10 11 -17 12 -25 4 -17 -17 -21 -8 -34 63 -11 60 -30 99 -50 99 -4 0
-8 -6 -8 -12z m207 -194 c-3 -3 -12 -4 -19 -1 -8 3 -5 6 6 6 11 1 17 -2 13 -5z
m413 -92 c0 -5 -7 -9 -15 -9 -8 0 -15 4 -15 9 0 4 7 8 15 8 8 0 15 -4 15 -8z
m667 -199 c5 -14 -45 -73 -63 -73 -24 0 -16 47 13 70 27 21 44 22 50 3z m366
-18 c-3 -9 -8 -14 -10 -11 -3 3 -2 9 2 15 9 16 15 13 8 -4z m137 -23 c0 -4 -9
-8 -20 -8 -22 0 -27 12 -7 19 14 5 27 -1 27 -11z m120 -22 c0 -5 -8 -10 -17
-10 -15 0 -16 2 -3 10 19 12 20 12 20 0z m-582 -27 l24 -15 -21 -22 c-26 -28
-27 -66 -1 -99 25 -32 25 -33 -5 -73 l-25 -32 -85 2 c-71 1 -87 5 -100 21 -51
64 -60 156 -20 203 24 29 27 30 117 30 65 0 100 -5 116 -15z"/>
<path d="M1390 1115 c0 -8 8 -11 20 -8 11 3 20 7 20 8 0 1 -9 5 -20 8 -12 3
-20 0 -20 -8z"/>
<path d="M1590 1089 c0 -5 5 -7 10 -4 6 3 10 8 10 11 0 2 -4 4 -10 4 -5 0 -10
-5 -10 -11z"/>
</g>
</svg>
